<svg width="20" height="18" viewBox="0 0 20 18" fill="none" xmlns="http://www.w3.org/2000/svg">
<path fill-rule="evenodd" clip-rule="evenodd" d="M0 7.94762C0 3.56457 3.80557 0.0114288 8.5 0.0114288C13.1944 0.0114288 17 3.56457 17 7.94762C17 9.64735 16.4277 11.2223 15.4532 12.5136L18.8164 15.6515C19.2402 16.0469 19.2402 16.7185 18.8164 17.1139L18.2198 17.6706C17.8356 18.0291 17.2395 18.0291 16.8554 17.6706L13.3915 14.4388C12.0083 15.3492 10.321 15.8838 8.5 15.8838C3.80557 15.8838 0 12.3307 0 7.94762ZM8.49996 13.6163C5.15217 13.6163 2.42853 11.0733 2.42853 7.94762C2.42853 4.8219 5.15217 2.27892 8.49996 2.27892C11.8477 2.27892 14.5714 4.8219 14.5714 7.94762C14.5714 11.0733 11.8477 13.6163 8.49996 13.6163Z" fill="#222222"/>
</svg>
